<svg version="1.2" xmlns="http://www.w3.org/2000/svg" viewBox="0 0 1550 380" width="1550" height="380">
	<title>cottty-svg</title>
	<style>
		.s0 { fill: #5c5f62 } 
	</style>
	<path id="Layer" class="s0" d="m826.1 70.2h116.9v300.4h74.1v-300.4h116.9v-61.2h-307.9z"/>
	<path id="Layer" class="s0" d="m337.6 52.8c-37.3-34.5-86.6-53.4-137.7-52.7-116.1 0-199.9 83.8-199.9 189.7 0 105.9 84.8 189.7 201 189.7 51.1 1 100.8-17.1 139.2-50.5l-1.9-2-38.5-40.5-6.3-6.7c-24.7 22.6-57.1 35-90.7 34.6-33-0.3-64.6-13.4-88-36.4-23.4-23.1-36.7-54.3-37.1-86.9-0.4-32.7 12.1-64.2 34.9-87.8 22.8-23.7 54-37.6 87-38.7 34 0.2 66.5 13.6 90.6 37.4z"/>
	<path id="Layer" fill-rule="evenodd" class="s0" d="m590.9 379.5c-109.3 0-197.7-84.8-197.7-189.7 0-104.9 88.4-189.7 197.7-189.7 109.3 0 197.7 84.8 197.7 189.7 0 104.9-88.4 189.7-197.7 189.7zm114.3-237.1c-6-15-15-28.8-26.5-40.4-11.4-11.6-25-20.9-40.1-27.2-15-6.4-31.2-9.8-47.6-9.9-24.1 0-47.7 7-67.9 20.2-20.1 13.2-35.8 32-45.2 54-9.4 22-12 46.3-7.5 69.8 4.4 23.5 15.8 45.1 32.6 62.2 16.9 17.2 38.4 29 62 34.1 23.6 5 48.2 3.1 70.7-5.6 22.5-8.7 41.9-23.7 55.8-43.2 13.9-19.6 21.7-42.7 22.4-66.6 0.3-16.2-2.7-32.3-8.7-47.4z"/>
	<path id="Layer" class="s0" d="m1461.4 9h88.6l-150.6 219.8v141.8h-73.8v-140.9l-150.5-220.7h89.6l99.1 149.9z"/>
</svg>