<?xml version="1.0" encoding="utf-8"?>
<!-- Generator: Adobe Illustrator 19.2.1, SVG Export Plug-In . SVG Version: 6.00 Build 0)  -->
<svg version="1.1" id="layer" xmlns="http://www.w3.org/2000/svg" xmlns:xlink="http://www.w3.org/1999/xlink" x="0px" y="0px"
	 viewBox="0 0 652 652" style="enable-background:new 0 0 652 652;" xml:space="preserve">
<style type="text/css">
	.st0{fill:#5c5f62;}
	.st1{fill:none;stroke:#5c5f62;stroke-width:3.2389;}
</style>
<path class="st0" d="M614.5,277.7h-1.3v-2.4h1.2c1.4,0,2,0.4,2,1.2C616.5,277.4,615.8,277.7,614.5,277.7z M618,276.4
	c0-1.3-1.1-2-3.3-2h-3v7.2h1.5v-3.1h1.5l1.6,3.1h1.7l-1.8-3.3C617.4,278.1,618,277.4,618,276.4z"/>
<path class="st0" d="M618.8,282c-0.6,0.5-1.2,0.9-2,1.2c-0.7,0.3-1.5,0.4-2.4,0.4c-1.6,0-3.1-0.6-4.2-1.6c-1.1-1-1.8-2.4-1.8-3.9
	c0-1.4,0.7-2.9,1.8-3.9c0.5-0.5,1.2-0.9,1.9-1.2c0.7-0.3,1.5-0.4,2.3-0.4c1.7,0,3.2,0.6,4.3,1.6c1.1,1,1.7,2.4,1.7,3.9
	C620.6,279.7,620,281,618.8,282z M619.5,273.7c-0.6-0.6-1.4-1.1-2.3-1.4c-0.9-0.3-1.8-0.5-2.7-0.5c-1.9,0-3.6,0.6-4.8,1.8
	c-1.4,1.3-2.1,2.9-2.1,4.5c0,1.7,0.7,3.2,2.1,4.5c0.6,0.6,1.4,1.1,2.2,1.4c0.8,0.3,1.8,0.5,2.7,0.5c1.8,0,3.6-0.7,5-1.9
	c1.3-1.2,2-2.7,2-4.5C621.5,276.5,620.8,274.9,619.5,273.7z"/>
<path class="st0" d="M96,362.7c-7.7,4.7-18,7-30.7,7c-12.2,0-22.1-2-29.6-6.1c-7.5-4.1-11.8-9.4-13-15.9v-0.5l-1.1-4.2
	c1.6-0.4,3.5-0.7,5.7-0.8c2.3,0,4.4,0.4,6.4,1.1c0.6,4.8,3.6,8.8,8.8,11.9c5.2,3.1,12.5,4.6,21.8,4.6c7.8,0,14.2-1.3,19-3.8
	c4.8-2.5,7.3-6,7.3-10.4c0-3.9-2-7.2-6.1-10c-4.1-2.7-13.2-5.6-27.4-8.4c-11.6-2.8-19.8-6.1-24.6-10.1c-4.8-3.9-7.2-8.9-7.2-14.9
	c0-7.5,3.6-13.5,10.9-18c7.2-4.5,16.8-6.7,28.6-6.7c10.8,0,19.5,1.9,26.2,5.8c6.7,3.8,10.6,8.7,11.8,14.6l0.4,3.3
	c-1.7,0.5-3.6,0.8-5.7,0.9c-2.1,0-4.1-0.2-6.1-0.6c-0.7-4.5-3.4-7.9-8.1-10.3c-4.6-2.4-10.7-3.7-18.3-3.7c-6.9,0-12.4,1.1-16.6,3.2
	c-4.2,2.1-6.2,5.1-6.2,8.8c0,4,2.5,7.2,7.4,9.5c5,2.3,12.5,4.5,22.5,6.6c11.9,2.7,20.8,6.2,26.7,10.5c5.9,4.3,8.9,10.1,8.8,17.6
	C107.6,351.6,103.7,358,96,362.7z M186.6,322.7c7.4,0,13.3-1.4,17.7-4.2c4.4-2.8,6.6-6.7,6.6-11.8c0-5.4-2.1-9.5-6.3-12.4
	c-4.2-2.9-10.2-4.3-18-4.3c-4.4,0-8.4,0.1-12.2,0.2c-3.7,0.1-7.3,0.4-10.9,0.8l-0.1,31.6H186.6z M163.2,359c0,3,0.1,4.9,0.3,5.6
	c0.2,0.7,0.6,1.1,1.2,1.1h3.3l0,1.5h-25.2l0-1.5h2.1c0.2,0,0.5,0,0.7-0.1c0.2-0.1,0.3-0.3,0.3-0.5l0.3-76.5c0-3-0.1-4.9-0.4-5.7
	c-0.3-0.8-0.7-1.1-1.2-1.1h-3l0-1.5h52.8c10.5,0,18.8,2.3,24.9,6.9c6.1,4.6,9.1,10.9,9.1,18.9c0,8.2-3.5,14.6-10.4,19.2
	c-6.9,4.6-16.1,7-27.7,7h-26.9L163.2,359z M288.8,293.7l-18.6,38.1h36.3L288.8,293.7z M344.5,367.3h-26.1v-1.5h2.8
	c0.4,0,0.6-0.1,0.6-0.4l-0.1-0.6l-11-23.4h-45l-10.3,21.2c-0.4,1.1-0.6,1.9-0.6,2.5c0,0.5,0.1,0.8,0.4,0.8h3.6v1.5H238v-1.5
	c1.3,0,2.1,0,2.3-0.1c0.2-0.1,0.7-0.8,1.3-2.3l42.3-83.2c2.9-0.3,5.7-0.5,8.6-0.6l1.9,0.1c2.4,0.1,4.6,0.3,6.5,0.6
	c0,0.3-0.3,0.5-0.8,0.8c-0.3,0.1-0.4,0.3-0.4,0.6l0.1,0.5l40.1,81.6c0.6,1.3,1.3,1.9,1.9,2c0.6,0,1.5,0.1,2.7,0.1L344.5,367.3
	L344.5,367.3z M456.2,288.2c0-3-0.1-4.9-0.4-5.6c-0.3-0.7-0.7-1.1-1.3-1.1h-3.2l0-1.5h20.3l0,1.5h-1.9c-0.5,0-0.8,0-0.9,0.1
	c-0.1,0.1-0.2,0.2-0.2,0.4l-0.7,85.3c-2.2,0.4-4.3,0.6-6.6,0.6c-2.1-0.1-4.1-0.3-6.1-0.8l-63.7-68l-0.5,59.5c0,3.1,0.1,5.1,0.4,5.8
	c0.3,0.8,0.7,1.1,1.2,1.1h3.9l0,1.5h-21l0-1.5h2.2c0.4,0,0.6,0,0.8-0.1c0.1-0.1,0.2-0.3,0.2-0.5l0.6-79.7c0-0.7-0.3-1.5-0.8-2.3
	c-0.6-0.9-1.2-1.3-1.9-1.3h-3.3l0-1.5h21.9l60.6,66.1L456.2,288.2z M576.9,280.2h21.7l0,1.5l-2.6,0.1l-0.8,0.9l-34.2,38.2l37.4,43.4
	c0.7,0.8,1.3,1.3,1.7,1.3c0.4,0,1.2,0.1,2.3,0.1l0,1.5h-27.9v-1.5h3.5c0.4,0,0.5-0.1,0.5-0.3l-0.1-0.5l-29.6-34.1
	c-5,5.3-10,10.7-14.8,16.1c-4.9,5.5-9.7,11-14.4,16.7c-0.1,0.5-0.1,1-0.2,1.5c0,0.3,0.2,0.5,0.5,0.5h3.4v1.5h-22.4v-1.5h2.1l1.1-1.1
	l37.3-41.7l-34.3-39.7c-0.7-0.9-1.2-1.4-1.7-1.4H503v-1.5h27.1l0,1.5c-1.7,0-2.7,0-3.2,0.1c-0.2,0-0.3,0-0.3,0.1l0.1,0.4l26.5,31
	c4.6-4.9,9.2-9.8,13.6-14.8c4.4-4.9,8.7-9.8,12.9-14.8c0.5-0.8,0.7-1.3,0.7-1.5c0-0.3-0.2-0.4-0.6-0.4l-3.2-0.1L576.9,280.2z"/>
<path class="st1" d="M96,362.7c-7.7,4.7-18,7-30.7,7c-12.2,0-22.1-2-29.6-6.1c-7.5-4.1-11.8-9.4-13-15.9v-0.5l-1.1-4.2
	c1.6-0.4,3.5-0.7,5.7-0.8c2.3,0,4.4,0.4,6.4,1.1c0.6,4.8,3.6,8.8,8.8,11.9c5.2,3.1,12.5,4.6,21.8,4.6c7.8,0,14.2-1.3,19-3.8
	c4.8-2.5,7.3-6,7.3-10.4c0-3.9-2-7.2-6.1-10c-4.1-2.7-13.2-5.6-27.4-8.4c-11.6-2.8-19.8-6.1-24.6-10.1c-4.8-3.9-7.2-8.9-7.2-14.9
	c0-7.5,3.6-13.5,10.9-18c7.2-4.5,16.8-6.7,28.6-6.7c10.8,0,19.5,1.9,26.2,5.8c6.7,3.8,10.6,8.7,11.8,14.6l0.4,3.3
	c-1.7,0.5-3.6,0.8-5.7,0.9c-2.1,0-4.1-0.2-6.1-0.6c-0.7-4.5-3.4-7.9-8.1-10.3c-4.6-2.4-10.7-3.7-18.3-3.7c-6.9,0-12.4,1.1-16.6,3.2
	c-4.2,2.1-6.2,5.1-6.2,8.8c0,4,2.5,7.2,7.4,9.5c5,2.3,12.5,4.5,22.5,6.6c11.9,2.7,20.8,6.2,26.7,10.5c5.9,4.3,8.9,10.1,8.8,17.6
	C107.6,351.6,103.7,358,96,362.7L96,362.7z M186.6,322.7c7.4,0,13.3-1.4,17.7-4.2c4.4-2.8,6.6-6.7,6.6-11.8c0-5.4-2.1-9.5-6.3-12.4
	c-4.2-2.9-10.2-4.3-18-4.3c-4.4,0-8.4,0.1-12.2,0.2c-3.7,0.1-7.3,0.4-10.9,0.8l-0.1,31.6H186.6z M163.2,359c0,3,0.1,4.9,0.3,5.6
	c0.2,0.7,0.6,1.1,1.2,1.1h3.3l0,1.5h-25.2l0-1.5h2.1c0.2,0,0.5,0,0.7-0.1c0.2-0.1,0.3-0.3,0.3-0.5l0.3-76.5c0-3-0.1-4.9-0.4-5.7
	c-0.3-0.8-0.7-1.1-1.2-1.1h-3l0-1.5h52.8c10.5,0,18.8,2.3,24.9,6.9c6.1,4.6,9.1,10.9,9.1,18.9c0,8.2-3.5,14.6-10.4,19.2
	c-6.9,4.6-16.1,7-27.7,7h-26.9L163.2,359L163.2,359z M288.8,293.7l-18.6,38.1h36.3L288.8,293.7L288.8,293.7z M344.5,367.3h-26.1
	v-1.5h2.8c0.4,0,0.6-0.1,0.6-0.4l-0.1-0.6l-11-23.4h-45l-10.3,21.2c-0.4,1.1-0.6,1.9-0.6,2.5c0,0.5,0.1,0.8,0.4,0.8h3.6v1.5H238
	v-1.5c1.3,0,2.1,0,2.3-0.1c0.2-0.1,0.7-0.8,1.3-2.3l42.3-83.2c2.9-0.3,5.7-0.5,8.6-0.6l1.9,0.1c2.4,0.1,4.6,0.3,6.5,0.6
	c0,0.3-0.3,0.5-0.8,0.8c-0.3,0.1-0.4,0.3-0.4,0.6l0.1,0.5l40.1,81.6c0.6,1.3,1.3,1.9,1.9,2c0.6,0,1.5,0.1,2.7,0.1L344.5,367.3
	L344.5,367.3L344.5,367.3z M456.2,288.2c0-3-0.1-4.9-0.4-5.6c-0.3-0.7-0.7-1.1-1.3-1.1h-3.2l0-1.5h20.3l0,1.5h-1.9
	c-0.5,0-0.8,0-0.9,0.1c-0.1,0.1-0.2,0.2-0.2,0.4l-0.7,85.3c-2.2,0.4-4.3,0.6-6.6,0.6c-2.1-0.1-4.1-0.3-6.1-0.8l-63.7-68l-0.5,59.5
	c0,3.1,0.1,5.1,0.4,5.8c0.3,0.8,0.7,1.1,1.2,1.1h3.9l0,1.5h-21l0-1.5h2.2c0.4,0,0.6,0,0.8-0.1c0.1-0.1,0.2-0.3,0.2-0.5l0.6-79.7
	c0-0.7-0.3-1.5-0.8-2.3c-0.6-0.9-1.2-1.3-1.9-1.3h-3.3l0-1.5h21.9l60.6,66.1L456.2,288.2L456.2,288.2z M576.9,280.2h21.7l0,1.5
	l-2.6,0.1l-0.8,0.9l-34.2,38.2l37.4,43.4c0.7,0.8,1.3,1.3,1.7,1.3c0.4,0,1.2,0.1,2.3,0.1l0,1.5h-27.9v-1.5h3.5
	c0.4,0,0.5-0.1,0.5-0.3l-0.1-0.5l-29.6-34.1c-5,5.3-10,10.7-14.8,16.1c-4.9,5.5-9.7,11-14.4,16.7c-0.1,0.5-0.1,1-0.2,1.5
	c0,0.3,0.2,0.5,0.5,0.5h3.4v1.5h-22.4v-1.5h2.1l1.1-1.1l37.3-41.7l-34.3-39.7c-0.7-0.9-1.2-1.4-1.7-1.4H503v-1.5h27.1l0,1.5
	c-1.7,0-2.7,0-3.2,0.1c-0.2,0-0.3,0-0.3,0.1l0.1,0.4l26.5,31c4.6-4.9,9.2-9.8,13.6-14.8c4.4-4.9,8.7-9.8,12.9-14.8
	c0.5-0.8,0.7-1.3,0.7-1.5c0-0.3-0.2-0.4-0.6-0.4l-3.2-0.1L576.9,280.2L576.9,280.2z"/>
</svg>
